# xmcd
# 
# Track frame offsets:
#     180
#     24151
#     41688
# 
# Disc length: 935
# 
# Revision: 0
# Processed by: cddbd v1.5.2PL0 Copyright (c) Steve Scherf et al.
# Submitted via: BonkEnc v1.0.8
# 
DISCID=1803a503
DTITLE=Kariya - Baby Let Me Love You For Tonight
DYEAR=1998
DGENRE=Dance
TTITLE0=Baby Let Me Love You For Tonight (Junior Vasquez Juniors Club Mix)
TTITLE1=Baby Let Me love You For Tonight (The Sol Brothers Anthem Mix Radio Edit)
TTITLE2=Baby Let Me Love You For Tonight (Original Mix)
EXTD=
EXTT0=
EXTT1=
EXTT2=
PLAYORDER=
